<?xml version="1.0" encoding="UTF-8" standalone="no"?>
<!-- Created with Inkscape (http://www.inkscape.org/) -->

<svg
   xmlns:dc="http://purl.org/dc/elements/1.1/"
   xmlns:cc="http://creativecommons.org/ns#"
   xmlns:rdf="http://www.w3.org/1999/02/22-rdf-syntax-ns#"
   xmlns:svg="http://www.w3.org/2000/svg"
   xmlns="http://www.w3.org/2000/svg"
   xmlns:sodipodi="http://sodipodi.sourceforge.net/DTD/sodipodi-0.dtd"
   xmlns:inkscape="http://www.inkscape.org/namespaces/inkscape"
   width="40mm"
   height="40mm"
   viewBox="0 0 40 40"
   version="1.1"
   id="svg8"
   sodipodi:docname="icon.svg"
   inkscape:version="0.92.3 (2405546, 2018-03-11)">
  <defs
     id="defs2" />
  <sodipodi:namedview
     id="base"
     pagecolor="#ffffff"
     bordercolor="#666666"
     borderopacity="1.0"
     inkscape:pageopacity="0.0"
     inkscape:pageshadow="2"
     inkscape:zoom="1.979899"
     inkscape:cx="22.749062"
     inkscape:cy="114.93261"
     inkscape:document-units="mm"
     inkscape:current-layer="g20"
     showgrid="false"
     inkscape:window-width="1366"
     inkscape:window-height="700"
     inkscape:window-x="0"
     inkscape:window-y="0"
     inkscape:window-maximized="1"
     showguides="false" />
  <metadata
     id="metadata5">
    <rdf:RDF>
      <cc:Work
         rdf:about="">
        <dc:format>image/svg+xml</dc:format>
        <dc:type
           rdf:resource="http://purl.org/dc/dcmitype/StillImage" />
        <dc:title></dc:title>
      </cc:Work>
    </rdf:RDF>
  </metadata>
  <g
     transform="translate(0,-257)"
     id="g20"
     inkscape:groupmode="layer"
     inkscape:label="Копія Layer 1"
     style="display:inline">
    <path
       sodipodi:type="inkscape:offset"
       inkscape:radius="9.0967379"
       inkscape:original="M 9.6542969 10.318359 C 5.456537 10.318359 3.1660156 12.638441 3.1660156 17.082031 C 3.1660156 22.491631 5.8366051 23.84375 12.896484 23.84375 L 47.242188 112.71484 C 49.722687 119.28362 51.05881 123.3418 57.355469 123.3418 L 62.507812 123.3418 C 67.087194 123.3418 68.994109 119.47683 71.474609 112.71484 L 72.333984 110.44141 C 68.101477 106.90245 64.971741 101.85686 63.464844 96.992188 L 60.027344 106.14648 L 28.353516 23.84375 L 38.65625 23.84375 C 44.571282 23.84375 47.242199 21.718831 47.242188 17.082031 C 47.242188 11.28605 44.380039 10.318359 37.892578 10.318359 L 9.6542969 10.318359 z M 79.298828 10.318359 C 72.811371 10.318359 69.949219 11.28605 69.949219 17.082031 C 69.949219 21.718831 72.620128 23.84375 78.535156 23.84375 L 90.9375 23.84375 L 90.464844 25.103516 C 95.123452 24.836303 99.983312 24.476765 104.91602 24.214844 L 105.05664 23.84375 L 106.20312 23.84375 C 112.49979 23.84375 114.97852 22.10525 114.97852 17.082031 C 114.97852 12.638441 112.68996 10.318359 108.49219 10.318359 L 79.298828 10.318359 z M 88.576172 28.269531 C 78.761575 28.269531 73.853516 30.275953 73.853516 34.291016 L 73.853516 36.96875 C 75.816435 40.537694 78.270465 42.322266 81.214844 42.322266 L 90.583984 41.652344 L 106.64453 41.652344 L 106.64453 42.990234 C 101.29111 48.56671 98.613281 51.914002 98.613281 53.029297 C 92.813747 57.044359 89.914062 60.835352 89.914062 64.404297 L 89.914062 65.742188 C 89.914062 69.177295 91.922438 71.185672 95.9375 71.765625 L 101.95898 71.095703 L 109.32031 71.095703 C 115.11985 71.095703 118.01953 73.773537 118.01953 79.126953 L 118.01953 81.134766 C 115.65511 93.179953 110.30139 99.201172 101.95898 99.201172 C 89.110789 98.844277 81.526845 97.059706 79.207031 93.847656 C 77.422559 88.048122 74.07722 85.148437 69.169922 85.148438 C 66.493214 86.085285 65.154297 87.869857 65.154297 90.501953 C 65.154297 94.293957 66.047559 97.641244 67.832031 100.54102 C 74.568414 108.57114 85.273888 112.58594 99.951172 112.58594 L 103.29883 111.91602 C 118.95757 111.91602 128.10228 101.20859 130.73438 79.794922 L 130.73438 76.449219 C 130.73438 67.437634 124.7112 61.416415 112.66602 58.382812 L 112.66602 56.375 C 122.03449 46.828074 126.71875 40.359247 126.71875 36.96875 C 126.71875 31.169215 122.70395 28.269531 114.67383 28.269531 L 88.576172 28.269531 z M 96.996094 45.117188 C 94.051547 45.068807 87.620386 46.424793 82.417969 46.529297 L 69.003906 82.246094 C 69.132259 82.227194 69.248387 82.196444 69.380859 82.183594 C 73.84283 81.830208 76.929207 84.921471 80.767578 88.119141 L 86.943359 71.779297 C 83.077538 67.093514 84.096383 59.812142 88.322266 53.585938 C 91.613195 51.569407 93.984327 50.01192 95.623047 48.808594 L 97.017578 45.119141 C 97.009678 45.118989 97.004024 45.117187 96.996094 45.117188 z "
       style="font-style:normal;font-variant:normal;font-weight:normal;font-stretch:normal;font-size:36.26047516px;line-height:1.25;font-family:'Basic Comical NC';-inkscape-font-specification:'Basic Comical NC';letter-spacing:0px;word-spacing:0px;display:inline;fill:#f2f2f2;fill-opacity:1;stroke:none;stroke-width:1.42757773"
       id="text16"
       d="m 9.6542969,1.2207031 c -3.7747879,0 -8.2248032,1.2487294 -11.359375,4.4921875 -3.1345718,3.2434582 -4.2265625,7.5843244 -4.2265625,11.3691404 0,4.201747 1.910093,10.126995 6.33398435,13.021485 2.11862355,1.386185 4.12854685,2.070969 6.10156245,2.433593 L 38.757812,115.99414 c 1.200039,3.18971 2.112137,6.46851 4.935547,10.08984 2.842624,3.64599 8.559506,6.35547 13.66211,6.35547 h 5.152343 c 4.848888,0 10.035109,-3.06846 12.546876,-6.41601 1.884316,-2.51132 2.956898,-5.01463 3.947265,-7.59375 6.290703,2.16902 13.341328,3.2539 20.949219,3.2539 a 9.0976475,9.0976475 0 0 0 1.785158,-0.17773 l 3.34765,-0.66992 c 9.22694,-0.44842 17.87868,-4.18706 23.73438,-11.04297 6.23772,-7.30318 9.49603,-17.097942 10.94531,-28.888673 a 9.0976475,9.0976475 0 0 0 0.0684,-1.109375 v -3.345703 c 0,-6.532491 -2.56789,-13.09208 -7.18359,-17.707031 -1.72709,-1.726805 -3.72084,-3.126835 -5.83399,-4.384766 1.35388,-1.600218 2.69699,-3.190552 3.75977,-4.658203 2.78493,-3.845882 5.24219,-6.845915 5.24219,-12.730469 0,-4.998877 -2.44216,-10.763181 -6.78321,-13.898438 -1.6878,-1.218992 -3.48044,-1.997613 -5.31836,-2.59375 0.23368,-1.184154 0.36133,-2.338923 0.36133,-3.394531 0,-3.783477 -1.09057,-8.1247935 -4.22461,-11.3691404 -3.13403,-3.2443468 -7.58458,-4.4921875 -11.35937,-4.4921875 H 79.298828 c -3.696028,0 -7.47987,-0.22332461 -11.972656,2.6210938 -4.492786,2.8444184 -6.474609,8.8448701 -6.47461,13.2402341 10e-7,3.977084 1.661687,8.984611 5.320313,12.033203 -0.81283,1.643454 -1.416016,3.367464 -1.416016,5.175782 v 2.677734 a 9.0976475,9.0976475 0 0 0 1.126953,4.384766 c 1.423818,2.58876 3.572323,5.05824 6.166016,6.910156 L 60.488281,79.046875 a 9.0976475,9.0976475 0 0 0 -0.464843,1.759766 L 41.484375,32.634766 c 3.168906,-0.279517 6.369234,-0.963263 9.320313,-3.292969 3.831441,-3.024703 5.535165,-8.19471 5.535156,-12.259766 0,-4.395362 -1.981823,-10.3958148 -6.47461,-13.2402341 C 45.372448,0.99737754 41.588608,1.2207031 37.892578,1.2207031 Z M 111.50781,32.494141 l -0.16992,0.447265 h -3.88867 a 9.0976475,9.0976475 0 0 0 0.46094,-0.144531 c 1.19268,-0.03588 2.38691,-0.09246 3.59765,-0.302734 z m -9.04492,47.699218 h 6.39258 c -0.98808,4.436795 -2.38106,7.274313 -3.42383,8.447266 -1.10077,1.238188 -1.50511,1.448725 -3.41016,1.455078 -5.156643,-0.151569 -9.038937,-0.591944 -11.849605,-1.126953 l 3.228516,-8.539062 c 0.411754,0.08271 0.831303,0.28134 1.236328,0.339843 a 9.0976475,9.0976475 0 0 0 2.30664,0.03711 z"
       transform="matrix(0.26458333,0,0,0.26458333,2.2383823,261.06455)" />
  </g>
  <g
     inkscape:label="Layer 1"
     inkscape:groupmode="layer"
     id="layer1"
     transform="translate(0,-257)"
     style="display:inline">
    <text
       inkscape:label="3"
       id="text3752"
       y="290.85281"
       x="19.477255"
       style="font-style:normal;font-variant:normal;font-weight:normal;font-stretch:normal;font-size:36.26047516px;line-height:1.25;font-family:'Basic Comical NC';-inkscape-font-specification:'Basic Comical NC';letter-spacing:0px;word-spacing:0px;display:inline;fill:#800000;fill-opacity:1;stroke:none;stroke-width:0.37771326"
       xml:space="preserve"><tspan
         style="font-style:normal;font-variant:normal;font-weight:normal;font-stretch:normal;font-size:36.26047516px;font-family:'Basic Comical NC';-inkscape-font-specification:'Basic Comical NC';fill:#800000;stroke-width:0.37771326"
         y="290.85281"
         x="19.477255"
         id="tspan3750"
         sodipodi:role="line">3</tspan></text>
    <path
       style="font-style:normal;font-variant:normal;font-weight:normal;font-stretch:normal;font-size:50.79999924px;line-height:1.25;font-family:'Courier 10 Pitch';-inkscape-font-specification:'Courier 10 Pitch';letter-spacing:0px;word-spacing:0px;display:inline;fill:#6c5353;fill-opacity:1;stroke:none;stroke-width:0.59085166"
       d="m 4.7926314,263.79463 c -1.1106573,0 -1.7166907,0.61385 -1.7166907,1.78955 0,1.43129 0.7065936,1.78904 2.5745201,1.78904 l 9.0872992,23.51381 c 0.656299,1.73799 1.009817,2.81172 2.675808,2.81172 h 1.363223 c 1.211628,0 1.716167,-1.02261 2.372466,-2.81172 l 0.227375,-0.60151 c -1.119851,-0.93635 -1.947926,-2.27133 -2.346626,-3.55844 L 18.1205,289.14915 9.7401333,267.37322 h 2.7259327 c 1.565019,0 2.271697,-0.56222 2.271694,-1.78904 0,-1.53352 -0.757274,-1.78955 -2.473748,-1.78955 z m 18.4267836,0 c -1.716473,0 -2.47375,0.25603 -2.47375,1.78955 0,1.22682 0.706675,1.78904 2.271693,1.78904 h 3.281455 l -0.125057,0.33331 c 1.23259,-0.0707 2.518428,-0.16582 3.823538,-0.23512 l 0.03721,-0.0982 h 0.303339 c 1.665989,0 2.321822,-0.45998 2.321822,-1.78904 0,-1.1757 -0.605515,-1.78955 -1.716175,-1.78955 z m 4.6824,9.20719 c -0.779078,-0.0128 -2.480654,0.34597 -3.857127,0.37362 l -3.549139,9.45007 c 0.03396,-0.005 0.06469,-0.0131 0.09974,-0.0165 1.180563,-0.0935 1.997167,0.7244 3.012736,1.57045 l 1.634009,-4.32325 c -1.022832,-1.23978 -0.753264,-3.16631 0.364834,-4.81366 0.870725,-0.53354 1.498086,-0.94563 1.931664,-1.26401 l 0.368972,-0.97617 c -0.0021,-4e-5 -0.0036,-5.2e-4 -0.0057,-5.2e-4 z"
       id="text32"
       inkscape:connector-curvature="0"
       inkscape:export-xdpi="254.79413"
       inkscape:export-ydpi="254.79413" />
  </g>
</svg>
